# xmcd CD database file
#
# Track frame offsets:
#	150
#	15420
#	31975
#	47962
#	73972
#	94920
#	111485
#	132287
#	145905
#	160105
#	179795
#
# Disc length: 2588 seconds
#
# Revision: 2
# Processed by: cddbd v1.5.2PL0 Copyright (c) Steve Scherf et al.
# Submitted via: CDex 1.70beta2
#
DISCID=a20a1a0b
DTITLE=高橋幸宏 - colors best of yt cover tracks vol.2
DYEAR=1999
DGENRE=Rock
TTITLE0=DON'T THINK TWICE, IT'S ALL RIGHT
TTITLE1=TAXMAN
TTITLE2=HOMBURG
TTITLE3=THE LOOK OF LOVE
TTITLE4=THIS ISLAND EARITH
TTITLE5=I NEED YOU
TTITLE6=どんないいこと
TTITLE7=WHAT THE WORLD NEEDS NOW IS LOVE
TTITLE8=ノー・ノー・ボーイ
TTITLE9=星屑の町
TTITLE10=THE APRIL FOOLS
EXTD=YEAR: 1999
EXTT0=
EXTT1=
EXTT2=
EXTT3=
EXTT4=
EXTT5=
EXTT6=
EXTT7=
EXTT8=
EXTT9=
EXTT10=
PLAYORDER=
